name baseline.mot
datacolumns 19
datarows 12
range 4.92998200000000 4.94831900000000
endheader
time	ground_force1_vx	ground_force1_vy	ground_force1_vz	ground_force1_px	ground_force1_py	ground_force1_pz	ground_force2_vx	ground_force2_vy	ground_force2_vz	ground_force2_px	ground_force2_py	ground_force2_pz	ground_torque1_x	ground_torque1_y	ground_torque1_z	ground_torque2_x	ground_torque2_y	ground_torque2_z	
4.92998200000000	73.93229900000000	814.49713299999996	89.13012900000000	0.18825900000000	0.00000000000000	0.15353800000000	0.00000000000000	0.00000000000000	0.00000000000000	0.00000000000000	0.00000000000000	0.00000000000000	0.00000000000000	10.36005700000000	0.00000000000000	0.00000000000000	0.00000000000000	0.00000000000000	
4.93165900000000	73.17896300000000	816.35904700000003	89.08303800000000	0.18728700000000	0.00000000000000	0.15348900000000	0.00000000000000	0.00000000000000	0.00000000000000	0.00000000000000	0.00000000000000	0.00000000000000	0.00000000000000	10.36893100000000	0.00000000000000	0.00000000000000	0.00000000000000	0.00000000000000	
4.93331200000000	72.42364300000000	818.04161199999999	89.03114100000001	0.18632400000000	0.00000000000000	0.15344100000000	0.00000000000000	0.00000000000000	0.00000000000000	0.00000000000000	0.00000000000000	0.00000000000000	0.00000000000000	10.37867000000000	0.00000000000000	0.00000000000000	0.00000000000000	0.00000000000000	
4.93498700000000	71.66698200000000	819.54443400000002	88.97472000000000	0.18536900000000	0.00000000000000	0.15339300000000	0.00000000000000	0.00000000000000	0.00000000000000	0.00000000000000	0.00000000000000	0.00000000000000	0.00000000000000	10.38929400000000	0.00000000000000	0.00000000000000	0.00000000000000	0.00000000000000	
4.93665200000000	70.90956600000000	820.86737000000005	88.91396200000000	0.18442100000000	0.00000000000000	0.15334700000000	0.00000000000000	0.00000000000000	0.00000000000000	0.00000000000000	0.00000000000000	0.00000000000000	0.00000000000000	10.40079400000000	0.00000000000000	0.00000000000000	0.00000000000000	0.00000000000000	
4.93831200000000	70.15192999999999	822.01052900000002	88.84896400000000	0.18348000000000	0.00000000000000	0.15330100000000	0.00000000000000	0.00000000000000	0.00000000000000	0.00000000000000	0.00000000000000	0.00000000000000	0.00000000000000	10.41313400000000	0.00000000000000	0.00000000000000	0.00000000000000	0.00000000000000	
4.93998100000000	69.39456000000000	822.97428500000001	88.77974000000000	0.18254500000000	0.00000000000000	0.15325600000000	0.00000000000000	0.00000000000000	0.00000000000000	0.00000000000000	0.00000000000000	0.00000000000000	0.00000000000000	10.42625000000000	0.00000000000000	0.00000000000000	0.00000000000000	0.00000000000000	
4.94164600000000	68.63789400000000	823.75927600000000	88.70621900000000	0.18161700000000	0.00000000000000	0.15321100000000	0.00000000000000	0.00000000000000	0.00000000000000	0.00000000000000	0.00000000000000	0.00000000000000	0.00000000000000	10.44005300000000	0.00000000000000	0.00000000000000	0.00000000000000	0.00000000000000	
4.94331400000000	67.88232400000000	824.36641599999996	88.62825800000000	0.18069400000000	0.00000000000000	0.15316800000000	0.00000000000000	0.00000000000000	0.00000000000000	0.00000000000000	0.00000000000000	0.00000000000000	0.00000000000000	10.45443600000000	0.00000000000000	0.00000000000000	0.00000000000000	0.00000000000000	
4.94498500000000	67.12819800000000	824.79689099999996	88.54564499999999	0.17977500000000	0.00000000000000	0.15312400000000	0.00000000000000	0.00000000000000	0.00000000000000	0.00000000000000	0.00000000000000	0.00000000000000	0.00000000000000	10.46926600000000	0.00000000000000	0.00000000000000	0.00000000000000	0.00000000000000	
4.94664500000000	66.37582300000000	825.05216900000005	88.45810299999999	0.17886100000000	0.00000000000000	0.15308200000000	0.00000000000000	0.00000000000000	0.00000000000000	0.00000000000000	0.00000000000000	0.00000000000000	0.00000000000000	10.48439900000000	0.00000000000000	0.00000000000000	0.00000000000000	0.00000000000000	
4.94831900000000	65.62546600000000	825.13399500000003	88.36529899999999	0.17795100000000	0.00000000000000	0.15304000000000	0.00000000000000	0.00000000000000	0.00000000000000	0.00000000000000	0.00000000000000	0.00000000000000	0.00000000000000	10.49967200000000	0.00000000000000	0.00000000000000	0.00000000000000	0.00000000000000	
